<?xml version="1.0"?><svg xmlns="http://www.w3.org/2000/svg" xmlns:xlink="http://www.w3.org/1999/xlink" version="1.1" viewBox="0 0 512 512" style="enable-background:new 0 0 512 512;" xml:space="preserve"><g id="_x31_2_x2C__Poker_x2C__Poker_Cards_x2C__Playing_Cards_x2C__Blackjack_x2C__Casino"><g><path d="M431.013,1.023H160.994c-1.736,0-86.984,17.192-87.088,17.214c-21.622,3.896-36.092,24.637-32.268,46.291    c0.025,0.137-1.839-9.498,79.845,412.478c2.899,19.203,19.513,33.971,39.512,33.971h270.019c22.035,0,39.962-17.927,39.962-39.962    V40.985C470.975,18.95,453.048,1.023,431.013,1.023z M451.055,471.015c0,11.051-8.99,20.042-20.042,20.042H160.994    c-11.051,0-20.042-8.99-20.042-20.042V40.985c0-11.164,9.12-20.042,20.042-20.042h270.019c11.051,0,20.042,8.99,20.042,20.042    V471.015z"/><path d="M359.749,253.107l-56.703-56.703c-3.891-3.889-10.196-3.889-14.086,0l-56.707,56.707    c-14.927,14.945-14.926,39.252,0.005,54.183c14.807,14.808,38.817,14.927,53.785,0.381v33.331c0,5.5,4.46,9.96,9.96,9.96    c5.5,0,9.96-4.46,9.96-9.96v-33.331c14.965,14.547,38.915,14.489,53.786-0.381C374.681,292.363,374.683,268.056,359.749,253.107z"/><path d="M200.244,47.287c-1.513-3.782-5.176-6.261-9.248-6.261c-4.073,0-7.736,2.479-9.248,6.261L161.747,97.29    c-2.042,5.107,0.442,10.904,5.549,12.947c5.107,2.037,10.903-0.442,12.947-5.549l10.753-26.884l10.754,26.884    c2.049,5.121,7.849,7.585,12.947,5.549c5.107-2.043,7.591-7.84,5.549-12.947L200.244,47.287z"/><path d="M405.258,407.312c-1.513-3.782-5.176-6.261-9.248-6.261c-4.073,0-7.736,2.479-9.248,6.261l-20.001,50.003    c-2.043,5.108,0.441,10.904,5.549,12.947c5.106,2.039,10.901-0.435,12.947-5.549l10.753-26.884l10.754,26.884    c2.044,5.108,7.84,7.587,12.947,5.549c5.107-2.044,7.591-7.84,5.549-12.947L405.258,407.312z"/></g></g><g id="Layer_1"/></svg>